<svg width="239" height="239" viewBox="0 0 239 239" fill="none" xmlns="http://www.w3.org/2000/svg">
<path d="M154.584 119.25L231.251 42.5833C240.917 32.9167 240.917 16.9167 231.251 7.25C221.584 -2.41667 205.584 -2.41667 195.917 7.25L119.251 83.9163L42.583 7.25C32.9163 -2.41667 16.9163 -2.41667 7.25 7.25C-2.41667 16.9167 -2.41667 32.9167 7.25 42.5833L83.9173 119.25L7.25 195.916C-2.41667 205.583 -2.41667 221.583 7.25 231.25C12.25 236.25 18.583 238.583 24.9163 238.583C31.2496 238.583 37.583 236.25 42.583 231.25L119.251 154.583L195.917 231.25C200.917 236.25 207.251 238.583 213.584 238.583C219.917 238.583 226.251 236.25 231.251 231.25C240.917 221.583 240.917 205.583 231.251 195.916L154.584 119.25Z" fill="#292D32"/>
</svg>
