<svg width="384" height="350" viewBox="0 0 384 350" fill="none" xmlns="http://www.w3.org/2000/svg">
<path d="M358.333 50H25C11.3333 50 0 38.6667 0 25C0 11.3333 11.3333 0 25 0H358.333C372 0 383.333 11.3333 383.333 25C383.333 38.6667 372 50 358.333 50Z" fill="white"/>
<path d="M358.333 200H25C11.3333 200 0 188.667 0 175C0 161.333 11.3333 150 25 150H358.333C372 150 383.333 161.333 383.333 175C383.333 188.667 372 200 358.333 200Z" fill="white"/>
<path d="M358.333 350H25C11.3333 350 0 338.667 0 325C0 311.333 11.3333 300 25 300H358.333C372 300 383.333 311.333 383.333 325C383.333 338.667 372 350 358.333 350Z" fill="white"/>
</svg>
