<svg width="152" height="49" viewBox="0 0 152 49" fill="none" xmlns="http://www.w3.org/2000/svg">
<path d="M83.41 47.555C80.9533 47.775 77.4333 47.885 72.85 47.885C68.2667 47.885 65.1317 47.8117 63.445 47.665C61.795 47.555 60.5483 47.2617 59.705 46.785C58.8617 46.3083 58.4033 45.5567 58.33 44.53C58.11 40.57 58 36.06 58 31C58 25.9033 58.0733 20.5133 58.22 14.83C58.2933 11.31 59.925 9.44 63.115 9.22C65.3517 9.07333 68.78 9 73.4 9C78.02 9 81.6317 9.07333 84.235 9.22C86.875 9.33 89.405 9.935 91.825 11.035C94.2817 12.0983 96.2433 13.4917 97.71 15.215C100.753 18.7717 102.275 22.8967 102.275 27.59C102.275 32.54 100.68 36.9583 97.49 40.845C95.95 42.715 93.9517 44.255 91.495 45.465C89.075 46.675 86.38 47.3717 83.41 47.555ZM80.935 21.045V34.355C80.935 34.6483 81.045 34.9233 81.265 35.18C81.485 35.4367 81.7783 35.565 82.145 35.565C84.4917 35.565 86.2883 34.7583 87.535 33.145C88.8183 31.5317 89.46 29.625 89.46 27.425C89.46 25.225 88.8733 23.3183 87.7 21.705C86.5633 20.055 85.0233 19.23 83.08 19.23C82.6033 19.23 82.2367 19.2483 81.98 19.285C81.2833 19.4683 80.935 20.055 80.935 21.045Z" fill="#1E1E1E"/>
<path d="M132.878 47.555C130.421 47.775 126.901 47.885 122.318 47.885C117.734 47.885 114.599 47.8117 112.913 47.665C111.263 47.555 110.016 47.2617 109.173 46.785C108.329 46.3083 107.871 45.5567 107.798 44.53C107.578 40.57 107.468 36.06 107.468 31C107.468 25.9033 107.541 20.5133 107.688 14.83C107.761 11.31 109.393 9.44 112.583 9.22C114.819 9.07333 118.248 9 122.868 9C127.488 9 131.099 9.07333 133.703 9.22C136.343 9.33 138.873 9.935 141.293 11.035C143.749 12.0983 145.711 13.4917 147.178 15.215C150.221 18.7717 151.743 22.8967 151.743 27.59C151.743 32.54 150.148 36.9583 146.958 40.845C145.418 42.715 143.419 44.255 140.963 45.465C138.543 46.675 135.848 47.3717 132.878 47.555ZM130.403 21.045V34.355C130.403 34.6483 130.513 34.9233 130.733 35.18C130.953 35.4367 131.246 35.565 131.613 35.565C133.959 35.565 135.756 34.7583 137.003 33.145C138.286 31.5317 138.928 29.625 138.928 27.425C138.928 25.225 138.341 23.3183 137.168 21.705C136.031 20.055 134.491 19.23 132.548 19.23C132.071 19.23 131.704 19.2483 131.448 19.285C130.751 19.4683 130.403 20.055 130.403 21.045Z" fill="#1E1E1E"/>
<path fill-rule="evenodd" clip-rule="evenodd" d="M27.665 48.6366C23.2283 48.6366 19.2133 48.0682 15.62 46.9316C12.0267 45.7582 9.11167 44.1999 6.875 42.2566C4.63833 40.3132 2.93333 38.1499 1.76 35.7666C0.586667 33.3466 0 30.8349 0 28.2316C0 25.6282 0.586667 23.1349 1.76 20.7516C2.97 18.3316 4.675 16.1499 6.875 14.2066C8.22069 13.0374 9.97962 11.9583 11.7505 11.068L9.9139 8.00133C8.53267 8.00018 7.1897 7.28288 6.44941 6.00067C5.34484 4.0875 6.00034 1.64114 7.91352 0.536566C9.82668 -0.568003 12.273 0.0874972 13.3776 2.00067C14.1179 3.28287 14.0676 4.80457 13.378 6.00133L15.3914 9.53223C18.9847 8.3589 23.155 7.77156 27.445 7.77156C31.5713 7.77156 35.3457 8.29615 38.5562 9.2799L40.449 6.00134C39.7594 4.80458 39.7091 3.28288 40.4494 2.00067C41.554 0.0874972 44.0003 -0.568003 45.9135 0.536566C47.8267 1.64114 48.4822 4.0875 47.3776 6.00067C46.6373 7.28287 45.2944 8.00017 43.9131 8.00133L42.3256 10.7511C44.0419 11.5851 45.57 12.5888 46.805 13.7116C50.9117 17.4516 52.965 21.8882 52.965 27.0216C52.965 29.6249 52.3967 32.1732 51.26 34.6666C50.16 37.1599 48.565 39.4332 46.475 41.4866C44.4217 43.5032 41.7633 45.1716 38.5 46.4916C35.2367 47.7749 31.625 48.4899 27.665 48.6366ZM29.87 36.5273C37.0427 36.2094 42.6689 31.7026 42.4367 26.461C42.2044 21.2195 36.2015 17.228 29.0288 17.5459C21.8562 17.8637 16.2299 22.3705 16.4622 27.6121C16.6944 32.8537 22.6973 36.8451 29.87 36.5273Z" fill="#1E1E1E"/>
<path fill-rule="evenodd" clip-rule="evenodd" d="M38.4494 27.5366C38.4494 30.298 35.987 32.5366 32.9494 32.5366C29.9118 32.5366 27.4494 30.298 27.4494 27.5366C27.4494 24.7751 29.9118 22.5366 32.9494 22.5366C35.987 22.5366 38.4494 24.7751 38.4494 27.5366ZM35.4494 27.5366C36.0017 27.5366 36.4494 27.0889 36.4494 26.5366C36.4494 25.9843 36.0017 25.5366 35.4494 25.5366C34.8971 25.5366 34.4494 25.9843 34.4494 26.5366C34.4494 27.0889 34.8971 27.5366 35.4494 27.5366Z" fill="#1E1E1E"/>
</svg>
