<svg width="154" height="51" viewBox="0 0 154 51" fill="none" xmlns="http://www.w3.org/2000/svg">
<path d="M84.41 48.555C81.9533 48.775 78.4333 48.885 73.85 48.885C69.2667 48.885 66.1317 48.8117 64.445 48.665C62.795 48.555 61.5483 48.2617 60.705 47.785C59.8617 47.3083 59.4033 46.5567 59.33 45.53C59.11 41.57 59 37.06 59 32C59 26.9033 59.0733 21.5133 59.22 15.83C59.2933 12.31 60.925 10.44 64.115 10.22C66.3517 10.0733 69.78 10 74.4 10C79.02 10 82.6317 10.0733 85.235 10.22C87.875 10.33 90.405 10.935 92.825 12.035C95.2817 13.0983 97.2433 14.4917 98.71 16.215C101.753 19.7717 103.275 23.8967 103.275 28.59C103.275 33.54 101.68 37.9583 98.49 41.845C96.95 43.715 94.9517 45.255 92.495 46.465C90.075 47.675 87.38 48.3717 84.41 48.555ZM81.935 22.045V35.355C81.935 35.6483 82.045 35.9233 82.265 36.18C82.485 36.4367 82.7783 36.565 83.145 36.565C85.4917 36.565 87.2883 35.7583 88.535 34.145C89.8183 32.5317 90.46 30.625 90.46 28.425C90.46 26.225 89.8733 24.3183 88.7 22.705C87.5633 21.055 86.0233 20.23 84.08 20.23C83.6033 20.23 83.2367 20.2483 82.98 20.285C82.2833 20.4683 81.935 21.055 81.935 22.045Z" stroke="white"/>
<path d="M133.878 48.555C131.421 48.775 127.901 48.885 123.318 48.885C118.734 48.885 115.599 48.8117 113.913 48.665C112.263 48.555 111.016 48.2617 110.173 47.785C109.329 47.3083 108.871 46.5567 108.798 45.53C108.578 41.57 108.468 37.06 108.468 32C108.468 26.9033 108.541 21.5133 108.688 15.83C108.761 12.31 110.393 10.44 113.583 10.22C115.819 10.0733 119.248 10 123.868 10C128.488 10 132.099 10.0733 134.703 10.22C137.343 10.33 139.873 10.935 142.293 12.035C144.749 13.0983 146.711 14.4917 148.178 16.215C151.221 19.7717 152.743 23.8967 152.743 28.59C152.743 33.54 151.148 37.9583 147.958 41.845C146.418 43.715 144.419 45.255 141.963 46.465C139.543 47.675 136.848 48.3717 133.878 48.555ZM131.403 22.045V35.355C131.403 35.6483 131.513 35.9233 131.733 36.18C131.953 36.4367 132.246 36.565 132.613 36.565C134.959 36.565 136.756 35.7583 138.003 34.145C139.286 32.5317 139.928 30.625 139.928 28.425C139.928 26.225 139.341 24.3183 138.168 22.705C137.031 21.055 135.491 20.23 133.548 20.23C133.071 20.23 132.704 20.2483 132.448 20.285C131.751 20.4683 131.403 21.055 131.403 22.045Z" stroke="white"/>
<path fill-rule="evenodd" clip-rule="evenodd" d="M28.665 49.6366C24.2283 49.6366 20.2133 49.0682 16.62 47.9316C13.0267 46.7582 10.1117 45.1999 7.875 43.2566C5.63833 41.3132 3.93333 39.1499 2.76 36.7666C1.58667 34.3466 1 31.8349 1 29.2316C1 26.6282 1.58667 24.1349 2.76 21.7516C3.97 19.3316 5.675 17.1499 7.875 15.2066C9.22069 14.0374 10.9796 12.9583 12.7505 12.068L10.9139 9.00133C9.53267 9.00018 8.1897 8.28288 7.44941 7.00067C6.34484 5.0875 7.00034 2.64114 8.91352 1.53657C10.8267 0.431997 13.273 1.0875 14.3776 3.00067C15.1179 4.28287 15.0676 5.80457 14.378 7.00133L16.3914 10.5322C19.9847 9.3589 24.155 8.77156 28.445 8.77156C32.5713 8.77156 36.3457 9.29615 39.5562 10.2799L41.449 7.00134C40.7594 5.80458 40.7091 4.28288 41.4494 3.00067C42.554 1.0875 45.0003 0.431997 46.9135 1.53657C48.8267 2.64114 49.4822 5.0875 48.3776 7.00067C47.6373 8.28287 46.2944 9.00017 44.9131 9.00133L43.3256 11.7511C45.0419 12.5851 46.57 13.5888 47.805 14.7116C51.9117 18.4516 53.965 22.8882 53.965 28.0216C53.965 30.6249 53.3967 33.1732 52.26 35.6666C51.16 38.1599 49.565 40.4332 47.475 42.4866C45.4217 44.5032 42.7633 46.1716 39.5 47.4916C36.2367 48.7749 32.625 49.4899 28.665 49.6366ZM30.87 37.5273C38.0427 37.2094 43.6689 32.7026 43.4367 27.461C43.2044 22.2195 37.2015 18.228 30.0288 18.5459C22.8562 18.8637 17.2299 23.3705 17.4622 28.6121C17.6944 33.8537 23.6973 37.8451 30.87 37.5273Z" stroke="white"/>
<path fill-rule="evenodd" clip-rule="evenodd" d="M39.4494 28.5366C39.4494 31.298 36.987 33.5366 33.9494 33.5366C30.9118 33.5366 28.4494 31.298 28.4494 28.5366C28.4494 25.7751 30.9118 23.5366 33.9494 23.5366C36.987 23.5366 39.4494 25.7751 39.4494 28.5366ZM36.4494 28.5366C37.0017 28.5366 37.4494 28.0889 37.4494 27.5366C37.4494 26.9843 37.0017 26.5366 36.4494 26.5366C35.8971 26.5366 35.4494 26.9843 35.4494 27.5366C35.4494 28.0889 35.8971 28.5366 36.4494 28.5366Z" stroke="white"/>
</svg>
