<svg width="380" height="170" viewBox="0 0 380 170" fill="none" xmlns="http://www.w3.org/2000/svg">
<path d="M53.368 165.383L53.421 152.451C53.421 151.391 53.156 150.596 52.626 150.066C52.096 149.536 51.4247 149.271 50.612 149.271C49.8347 149.271 49.1103 149.554 48.439 150.119C47.803 150.649 47.485 151.409 47.485 152.398L47.538 160.083C47.538 162.521 47.5203 164.199 47.485 165.118C47.4497 166.037 47.2023 166.708 46.743 167.132C46.319 167.521 45.471 167.715 44.199 167.715L34.023 167.821C32.8923 167.821 32.0973 167.627 31.638 167.238C31.214 166.814 31.002 166.196 31.002 165.383L31.055 152.451C31.055 151.391 30.79 150.596 30.26 150.066C29.73 149.536 29.0587 149.271 28.246 149.271C27.4687 149.271 26.7443 149.554 26.073 150.119C25.437 150.649 25.119 151.409 25.119 152.398V155.631C25.119 160.295 25.013 163.475 24.801 165.171C24.695 165.772 24.3947 166.302 23.9 166.761C23.4053 167.22 22.522 167.503 21.25 167.609C20.0133 167.68 18.7767 167.715 17.54 167.715C16.3033 167.715 14.201 167.644 11.233 167.503C10.385 167.468 9.71367 167.22 9.219 166.761C8.72433 166.302 8.44167 165.772 8.371 165.171C8.12367 162.874 8 159.359 8 154.624C8 149.889 8.07067 146.656 8.212 144.925C8.35333 143.158 8.61833 142.01 9.007 141.48C9.39567 140.95 10.1907 140.685 11.392 140.685H21.727C22.9283 140.685 23.7233 140.95 24.112 141.48C24.536 142.01 24.801 142.911 24.907 144.183V144.236C27.6277 141.409 31.0903 139.996 35.295 139.996C37.8743 139.996 40.118 140.491 42.026 141.48C43.934 142.469 45.3473 143.918 46.266 145.826C47.432 143.918 49.022 142.469 51.036 141.48C53.0853 140.491 55.2937 139.996 57.661 139.996C61.265 139.996 64.18 140.95 66.406 142.858C68.632 144.766 69.7627 147.398 69.798 150.755C69.8687 154.112 69.904 157.115 69.904 159.765C69.904 162.415 69.8863 164.199 69.851 165.118C69.8157 166.037 69.5683 166.708 69.109 167.132C68.685 167.521 67.837 167.715 66.565 167.715L56.389 167.821C55.2583 167.821 54.4633 167.627 54.004 167.238C53.58 166.814 53.368 166.196 53.368 165.383Z" stroke="white" stroke-width="2"/>
<path d="M96.103 154.412C96.103 158.369 97.1453 160.348 99.23 160.348C101.315 160.348 102.357 158.369 102.357 154.412C102.357 152.61 102.145 151.232 101.721 150.278C101.297 149.289 100.467 148.794 99.23 148.794C97.9933 148.794 97.163 149.289 96.739 150.278C96.315 151.232 96.103 152.61 96.103 154.412ZM118.999 154.412C118.999 164.023 112.409 168.828 99.23 168.828C86.0506 168.828 79.461 164.023 79.461 154.412C79.461 149.854 81.1393 146.321 84.496 143.812C87.8526 141.303 92.764 140.049 99.23 140.049C105.696 140.049 110.607 141.303 113.964 143.812C117.321 146.321 118.999 149.854 118.999 154.412Z" stroke="white" stroke-width="2"/>
<path d="M152.08 165.383L152.133 152.451C152.133 151.391 151.868 150.596 151.338 150.066C150.808 149.536 150.137 149.271 149.324 149.271C148.547 149.271 147.822 149.554 147.151 150.119C146.515 150.649 146.197 151.409 146.197 152.398V155.631C146.197 160.295 146.091 163.475 145.879 165.171C145.773 165.772 145.473 166.302 144.978 166.761C144.483 167.22 143.6 167.503 142.328 167.609C141.091 167.68 139.855 167.715 138.618 167.715C137.381 167.715 135.279 167.644 132.311 167.503C131.463 167.468 130.792 167.22 130.297 166.761C129.802 166.302 129.52 165.772 129.449 165.171C129.202 162.874 129.078 159.359 129.078 154.624C129.078 149.889 129.149 146.656 129.29 144.925C129.431 143.158 129.696 142.01 130.085 141.48C130.474 140.95 131.269 140.685 132.47 140.685H142.805C144.006 140.685 144.801 140.95 145.19 141.48C145.614 142.01 145.879 142.911 145.985 144.183V144.236C148.706 141.409 152.009 139.996 155.896 139.996C159.818 139.996 162.892 140.95 165.118 142.858C167.344 144.766 168.475 147.398 168.51 150.755C168.581 154.112 168.616 157.115 168.616 159.765C168.616 162.415 168.598 164.199 168.563 165.118C168.528 166.037 168.28 166.708 167.821 167.132C167.397 167.521 166.549 167.715 165.277 167.715L155.101 167.821C153.97 167.821 153.175 167.627 152.716 167.238C152.292 166.814 152.08 166.196 152.08 165.383Z" stroke="white" stroke-width="2"/>
<path d="M190.9 160.719C190.9 159.73 190.476 158.952 189.628 158.387C188.815 157.822 187.808 157.398 186.607 157.115C185.441 156.797 184.257 156.444 183.056 156.055C181.854 155.631 180.83 154.924 179.982 153.935C179.169 152.91 178.763 151.568 178.763 149.907C178.763 143.335 183.868 140.049 194.08 140.049C198.461 140.049 201.977 140.791 204.627 142.275C205.475 142.734 206.075 143.176 206.429 143.6C206.782 143.989 206.959 144.695 206.959 145.72C206.959 146.745 206.747 147.522 206.323 148.052C205.934 148.547 205.528 148.794 205.104 148.794C204.715 148.794 203.832 148.405 202.454 147.628C201.111 146.815 199.715 146.391 198.267 146.356C197.101 146.356 196.518 146.939 196.518 148.105C196.518 148.882 196.924 149.501 197.737 149.96C198.549 150.419 199.539 150.826 200.705 151.179C201.871 151.497 203.037 151.903 204.203 152.398C205.369 152.857 206.358 153.652 207.171 154.783C207.983 155.878 208.39 157.274 208.39 158.97C208.39 165.542 203.284 168.828 193.073 168.828C188.091 168.828 184.027 168.104 180.883 166.655C179.929 166.266 179.24 165.878 178.816 165.489C178.392 165.065 178.18 164.323 178.18 163.263C178.18 162.168 178.392 161.39 178.816 160.931C179.275 160.472 179.646 160.242 179.929 160.242C180.247 160.242 181.271 160.631 183.003 161.408C184.734 162.185 186.483 162.574 188.25 162.574C190.016 162.574 190.9 161.956 190.9 160.719Z" stroke="white" stroke-width="2"/>
<path d="M220.706 148.37C220.706 147.805 220.318 147.522 219.54 147.522C218.162 147.522 217.35 147.063 217.102 146.144C216.961 145.685 216.89 144.978 216.89 144.024C216.89 143.07 217.014 142.399 217.261 142.01C217.544 141.586 218.056 141.286 218.798 141.109C219.576 140.897 220.265 140.561 220.865 140.102C221.501 139.607 222.773 138.547 224.681 136.922C226.625 135.297 227.967 134.237 228.709 133.742C229.487 133.247 230.441 133 231.571 133H234.221C235.458 133 236.288 133.159 236.712 133.477C237.136 133.76 237.348 134.219 237.348 134.855V139.89C237.348 140.632 237.666 141.003 238.302 141.003H243.973C244.892 141.003 245.546 141.197 245.934 141.586C246.358 141.975 246.57 142.876 246.57 144.289C246.57 145.667 246.358 146.55 245.934 146.939C245.51 147.328 244.874 147.522 244.026 147.522H238.514C238.02 147.522 237.702 147.646 237.56 147.893C237.419 148.14 237.348 148.494 237.348 148.953V155.313C237.419 156.514 237.861 157.521 238.673 158.334C239.521 159.147 240.705 159.553 242.224 159.553C242.966 159.553 243.885 159.359 244.98 158.97C246.076 158.546 246.818 158.334 247.206 158.334C248.16 158.334 248.637 159.747 248.637 162.574C248.637 164.623 248.09 165.86 246.994 166.284C245.864 166.673 244.274 166.991 242.224 167.238C240.175 167.485 238.126 167.609 236.076 167.609C234.027 167.609 232.066 167.45 230.193 167.132C228.356 166.779 226.678 166.178 225.158 165.33C222.19 163.599 220.706 160.295 220.706 155.419V148.37Z" stroke="white" stroke-width="2"/>
<path d="M265.604 142.328C267.23 141.515 268.89 140.932 270.586 140.579C272.318 140.226 274.438 140.049 276.946 140.049C279.49 140.049 281.911 140.367 284.207 141.003C286.504 141.604 288.218 142.434 289.348 143.494C291.327 145.437 292.316 147.716 292.316 150.331C292.316 154.43 288.854 156.479 281.928 156.479C279.49 156.479 276.964 156.249 274.349 155.79C274.455 158.122 274.879 159.765 275.621 160.719C276.399 161.673 277.759 162.15 279.702 162.15C281.646 162.15 283.253 161.938 284.525 161.514C285.797 161.09 286.822 160.666 287.599 160.242C288.377 159.783 289.03 159.553 289.56 159.553C290.126 159.553 290.603 159.8 290.991 160.295C291.592 160.931 291.892 161.814 291.892 162.945C291.892 164.04 291.663 164.8 291.203 165.224C290.779 165.613 290.09 166.001 289.136 166.39C285.78 167.803 281.01 168.51 274.826 168.51C269.703 168.51 265.481 167.291 262.159 164.853C258.873 162.38 257.23 159.058 257.23 154.889C257.23 152.875 257.601 151.038 258.343 149.377C259.085 147.681 260.075 146.285 261.311 145.19C262.548 144.059 263.979 143.105 265.604 142.328ZM277.9 146.091C275.745 146.091 274.579 147.84 274.402 151.338C276.098 151.479 276.982 151.55 277.052 151.55C279.384 151.55 280.55 150.773 280.55 149.218C280.55 147.133 279.667 146.091 277.9 146.091Z" stroke="white" stroke-width="2"/>
<path d="M305.788 140.685H316.123C317.325 140.685 318.155 140.95 318.614 141.48C319.074 141.975 319.303 142.734 319.303 143.759V145.667C321.282 141.922 324.497 140.049 328.949 140.049C330.433 140.049 331.652 140.526 332.606 141.48C333.56 142.434 334.037 143.706 334.037 145.296C334.037 146.886 333.613 148.476 332.765 150.066C331.917 151.621 330.734 152.398 329.214 152.398C328.508 152.398 327.518 152.045 326.246 151.338C324.974 150.596 323.95 150.225 323.172 150.225C322.395 150.225 321.582 150.508 320.734 151.073C319.922 151.638 319.515 152.575 319.515 153.882C319.515 159.571 319.409 163.334 319.197 165.171C319.091 165.772 318.791 166.302 318.296 166.761C317.802 167.22 316.918 167.503 315.646 167.609C314.41 167.68 313.173 167.715 311.936 167.715C310.7 167.715 308.597 167.644 305.629 167.503C304.781 167.468 304.11 167.22 303.615 166.761C303.121 166.302 302.838 165.772 302.767 165.171C302.52 162.874 302.396 159.359 302.396 154.624C302.396 149.889 302.467 146.656 302.608 144.925C302.75 143.158 303.015 142.01 303.403 141.48C303.792 140.95 304.587 140.685 305.788 140.685Z" stroke="white" stroke-width="2"/>
<path d="M353.659 160.719C353.659 159.73 353.235 158.952 352.387 158.387C351.575 157.822 350.568 157.398 349.366 157.115C348.2 156.797 347.017 156.444 345.815 156.055C344.614 155.631 343.589 154.924 342.741 153.935C341.929 152.91 341.522 151.568 341.522 149.907C341.522 143.335 346.628 140.049 356.839 140.049C361.221 140.049 364.736 140.791 367.386 142.275C368.234 142.734 368.835 143.176 369.188 143.6C369.542 143.989 369.718 144.695 369.718 145.72C369.718 146.745 369.506 147.522 369.082 148.052C368.694 148.547 368.287 148.794 367.863 148.794C367.475 148.794 366.591 148.405 365.213 147.628C363.871 146.815 362.475 146.391 361.026 146.356C359.86 146.356 359.277 146.939 359.277 148.105C359.277 148.882 359.684 149.501 360.496 149.96C361.309 150.419 362.298 150.826 363.464 151.179C364.63 151.497 365.796 151.903 366.962 152.398C368.128 152.857 369.118 153.652 369.93 154.783C370.743 155.878 371.149 157.274 371.149 158.97C371.149 165.542 366.044 168.828 355.832 168.828C350.85 168.828 346.787 168.104 343.642 166.655C342.688 166.266 341.999 165.878 341.575 165.489C341.151 165.065 340.939 164.323 340.939 163.263C340.939 162.168 341.151 161.39 341.575 160.931C342.035 160.472 342.406 160.242 342.688 160.242C343.006 160.242 344.031 160.631 345.762 161.408C347.494 162.185 349.243 162.574 351.009 162.574C352.776 162.574 353.659 161.956 353.659 160.719Z" stroke="white" stroke-width="2"/>
<path d="M208.46 119.804C202.35 120.353 193.595 120.628 182.195 120.628C170.795 120.628 162.998 120.445 158.803 120.078C154.699 119.804 151.598 119.071 149.5 117.88C147.403 116.689 146.263 114.811 146.08 112.246C145.533 102.353 145.26 91.0864 145.26 78.4453C145.26 65.7126 145.442 52.2471 145.807 38.0488C145.989 29.255 150.048 24.5833 157.982 24.0337C163.545 23.6673 172.072 23.4841 183.563 23.4841C195.054 23.4841 204.037 23.6673 210.512 24.0337C217.079 24.3085 223.371 25.82 229.39 28.568C235.501 31.2245 240.38 34.7054 244.028 39.0106C251.597 47.896 255.382 58.2013 255.382 69.9263C255.382 82.2926 251.415 93.3306 243.481 103.04C239.65 107.712 234.68 111.559 228.57 114.582C222.55 117.605 215.847 119.346 208.46 119.804ZM202.304 53.5754V86.8269C202.304 87.5597 202.578 88.2467 203.125 88.8879C203.672 89.5291 204.402 89.8497 205.314 89.8497C211.151 89.8497 215.619 87.8345 218.72 83.804C221.912 79.7735 223.508 75.0102 223.508 69.5141C223.508 64.018 222.049 59.2547 219.131 55.2242C216.303 51.1021 212.473 49.0411 207.64 49.0411C206.454 49.0411 205.542 49.0869 204.904 49.1785C203.171 49.6365 202.304 51.1021 202.304 53.5754Z" stroke="white" stroke-width="2"/>
<path d="M331.498 119.804C325.388 120.353 316.633 120.628 305.233 120.628C293.833 120.628 286.036 120.445 281.841 120.078C277.737 119.804 274.636 119.071 272.538 117.88C270.441 116.689 269.301 114.811 269.118 112.246C268.571 102.353 268.298 91.0864 268.298 78.4453C268.298 65.7126 268.48 52.2471 268.845 38.0488C269.027 29.255 273.086 24.5833 281.02 24.0337C286.583 23.6673 295.11 23.4841 306.601 23.4841C318.092 23.4841 327.075 23.6673 333.55 24.0337C340.117 24.3085 346.409 25.82 352.428 28.568C358.539 31.2245 363.418 34.7054 367.066 39.0106C374.635 47.896 378.42 58.2013 378.42 69.9263C378.42 82.2926 374.453 93.3306 366.519 103.04C362.688 107.712 357.718 111.559 351.608 114.582C345.588 117.605 338.885 119.346 331.498 119.804ZM325.342 53.5754V86.8269C325.342 87.5597 325.616 88.2467 326.163 88.8879C326.71 89.5291 327.44 89.8497 328.352 89.8497C334.189 89.8497 338.657 87.8345 341.758 83.804C344.95 79.7735 346.546 75.0102 346.546 69.5141C346.546 64.018 345.087 59.2547 342.169 55.2242C339.341 51.1021 335.511 49.0411 330.678 49.0411C329.492 49.0411 328.58 49.0869 327.942 49.1785C326.209 49.6365 325.342 51.1021 325.342 53.5754Z" stroke="white" stroke-width="2"/>
<path fill-rule="evenodd" clip-rule="evenodd" d="M69.8094 122.506C58.7743 122.506 48.7881 121.086 39.8506 118.246C30.9132 115.315 23.6629 111.422 18.0997 106.567C12.5366 101.712 8.29589 96.3074 5.37753 90.3533C2.45918 84.3076 1 78.0328 1 71.5291C1 65.0254 2.45918 58.7964 5.37753 52.8423C8.38709 46.7966 12.6278 41.3462 18.0997 36.4913C21.4468 33.5704 25.8217 30.8745 30.2262 28.6504L25.6582 20.9892C22.2228 20.9863 18.8825 19.1943 17.0412 15.9911C14.2939 11.2115 15.9243 5.09994 20.6828 2.34047C25.4413 -0.419006 31.526 1.21859 34.2733 5.99814C36.1145 9.20139 35.9895 13.0029 34.2742 15.9927L39.282 24.8138C48.2194 21.8825 58.5919 20.4152 69.2622 20.4152C79.5253 20.4152 88.9131 21.7257 96.8982 24.1834L101.606 15.9928C99.891 13.003 99.766 9.2014 101.607 5.99814C104.355 1.21859 110.439 -0.419006 115.198 2.34047C119.956 5.09994 121.587 11.2115 118.839 15.9911C116.998 19.1943 113.658 20.9863 110.222 20.9892L106.274 27.8588C110.542 29.9422 114.343 32.4498 117.415 35.2547C127.629 44.5981 132.736 55.682 132.736 68.5062C132.736 75.01 131.323 81.3763 128.496 87.6052C125.76 93.8342 121.793 99.5135 116.594 104.643C111.487 109.681 104.875 113.849 96.7586 117.147C88.6419 120.353 79.6588 122.139 69.8094 122.506ZM75.2937 92.2537C93.1338 91.4596 107.128 80.2006 106.55 67.1059C105.972 54.0113 91.0416 44.0397 73.2015 44.8337C55.3614 45.6278 41.3675 56.8869 41.9453 69.9815C42.523 83.0762 57.4536 93.0478 75.2937 92.2537Z" stroke="white" stroke-width="2"/>
<path fill-rule="evenodd" clip-rule="evenodd" d="M96.6327 69.7928C96.6327 76.6915 90.5081 82.284 82.953 82.284C75.3978 82.284 69.2732 76.6915 69.2732 69.7928C69.2732 62.8941 75.3978 57.3016 82.953 57.3016C90.5081 57.3016 96.6327 62.8941 96.6327 69.7928ZM89.171 69.7928C90.5447 69.7928 91.6583 68.6743 91.6583 67.2946C91.6583 65.9148 90.5447 64.7963 89.171 64.7963C87.7974 64.7963 86.6838 65.9148 86.6838 67.2946C86.6838 68.6743 87.7974 69.7928 89.171 69.7928Z" stroke="white" stroke-width="2"/>
</svg>
