<svg width="378" height="168" viewBox="0 0 378 168" fill="none" xmlns="http://www.w3.org/2000/svg">
<path d="M52.368 164.383L52.421 151.451C52.421 150.391 52.156 149.596 51.626 149.066C51.096 148.536 50.4247 148.271 49.612 148.271C48.8347 148.271 48.1103 148.554 47.439 149.119C46.803 149.649 46.485 150.409 46.485 151.398L46.538 159.083C46.538 161.521 46.5203 163.199 46.485 164.118C46.4497 165.037 46.2023 165.708 45.743 166.132C45.319 166.521 44.471 166.715 43.199 166.715L33.023 166.821C31.8923 166.821 31.0973 166.627 30.638 166.238C30.214 165.814 30.002 165.196 30.002 164.383L30.055 151.451C30.055 150.391 29.79 149.596 29.26 149.066C28.73 148.536 28.0587 148.271 27.246 148.271C26.4687 148.271 25.7443 148.554 25.073 149.119C24.437 149.649 24.119 150.409 24.119 151.398V154.631C24.119 159.295 24.013 162.475 23.801 164.171C23.695 164.772 23.3947 165.302 22.9 165.761C22.4053 166.22 21.522 166.503 20.25 166.609C19.0133 166.68 17.7767 166.715 16.54 166.715C15.3033 166.715 13.201 166.644 10.233 166.503C9.385 166.468 8.71367 166.22 8.219 165.761C7.72433 165.302 7.44167 164.772 7.371 164.171C7.12367 161.874 7 158.359 7 153.624C7 148.889 7.07067 145.656 7.212 143.925C7.35333 142.158 7.61833 141.01 8.007 140.48C8.39567 139.95 9.19067 139.685 10.392 139.685H20.727C21.9283 139.685 22.7233 139.95 23.112 140.48C23.536 141.01 23.801 141.911 23.907 143.183V143.236C26.6277 140.409 30.0903 138.996 34.295 138.996C36.8743 138.996 39.118 139.491 41.026 140.48C42.934 141.469 44.3473 142.918 45.266 144.826C46.432 142.918 48.022 141.469 50.036 140.48C52.0853 139.491 54.2937 138.996 56.661 138.996C60.265 138.996 63.18 139.95 65.406 141.858C67.632 143.766 68.7627 146.398 68.798 149.755C68.8687 153.112 68.904 156.115 68.904 158.765C68.904 161.415 68.8863 163.199 68.851 164.118C68.8157 165.037 68.5683 165.708 68.109 166.132C67.685 166.521 66.837 166.715 65.565 166.715L55.389 166.821C54.2583 166.821 53.4633 166.627 53.004 166.238C52.58 165.814 52.368 165.196 52.368 164.383Z" fill="#1E1E1E"/>
<path d="M95.103 153.412C95.103 157.369 96.1453 159.348 98.23 159.348C100.315 159.348 101.357 157.369 101.357 153.412C101.357 151.61 101.145 150.232 100.721 149.278C100.297 148.289 99.4666 147.794 98.23 147.794C96.9933 147.794 96.163 148.289 95.739 149.278C95.315 150.232 95.103 151.61 95.103 153.412ZM117.999 153.412C117.999 163.023 111.409 167.828 98.23 167.828C85.0506 167.828 78.461 163.023 78.461 153.412C78.461 148.854 80.1393 145.321 83.496 142.812C86.8526 140.303 91.764 139.049 98.23 139.049C104.696 139.049 109.607 140.303 112.964 142.812C116.321 145.321 117.999 148.854 117.999 153.412Z" fill="#1E1E1E"/>
<path d="M151.08 164.383L151.133 151.451C151.133 150.391 150.868 149.596 150.338 149.066C149.808 148.536 149.137 148.271 148.324 148.271C147.547 148.271 146.822 148.554 146.151 149.119C145.515 149.649 145.197 150.409 145.197 151.398V154.631C145.197 159.295 145.091 162.475 144.879 164.171C144.773 164.772 144.473 165.302 143.978 165.761C143.483 166.22 142.6 166.503 141.328 166.609C140.091 166.68 138.855 166.715 137.618 166.715C136.381 166.715 134.279 166.644 131.311 166.503C130.463 166.468 129.792 166.22 129.297 165.761C128.802 165.302 128.52 164.772 128.449 164.171C128.202 161.874 128.078 158.359 128.078 153.624C128.078 148.889 128.149 145.656 128.29 143.925C128.431 142.158 128.696 141.01 129.085 140.48C129.474 139.95 130.269 139.685 131.47 139.685H141.805C143.006 139.685 143.801 139.95 144.19 140.48C144.614 141.01 144.879 141.911 144.985 143.183V143.236C147.706 140.409 151.009 138.996 154.896 138.996C158.818 138.996 161.892 139.95 164.118 141.858C166.344 143.766 167.475 146.398 167.51 149.755C167.581 153.112 167.616 156.115 167.616 158.765C167.616 161.415 167.598 163.199 167.563 164.118C167.528 165.037 167.28 165.708 166.821 166.132C166.397 166.521 165.549 166.715 164.277 166.715L154.101 166.821C152.97 166.821 152.175 166.627 151.716 166.238C151.292 165.814 151.08 165.196 151.08 164.383Z" fill="#1E1E1E"/>
<path d="M189.9 159.719C189.9 158.73 189.476 157.952 188.628 157.387C187.815 156.822 186.808 156.398 185.607 156.115C184.441 155.797 183.257 155.444 182.056 155.055C180.854 154.631 179.83 153.924 178.982 152.935C178.169 151.91 177.763 150.568 177.763 148.907C177.763 142.335 182.868 139.049 193.08 139.049C197.461 139.049 200.977 139.791 203.627 141.275C204.475 141.734 205.075 142.176 205.429 142.6C205.782 142.989 205.959 143.695 205.959 144.72C205.959 145.745 205.747 146.522 205.323 147.052C204.934 147.547 204.528 147.794 204.104 147.794C203.715 147.794 202.832 147.405 201.454 146.628C200.111 145.815 198.715 145.391 197.267 145.356C196.101 145.356 195.518 145.939 195.518 147.105C195.518 147.882 195.924 148.501 196.737 148.96C197.549 149.419 198.539 149.826 199.705 150.179C200.871 150.497 202.037 150.903 203.203 151.398C204.369 151.857 205.358 152.652 206.171 153.783C206.983 154.878 207.39 156.274 207.39 157.97C207.39 164.542 202.284 167.828 192.073 167.828C187.091 167.828 183.027 167.104 179.883 165.655C178.929 165.266 178.24 164.878 177.816 164.489C177.392 164.065 177.18 163.323 177.18 162.263C177.18 161.168 177.392 160.39 177.816 159.931C178.275 159.472 178.646 159.242 178.929 159.242C179.247 159.242 180.271 159.631 182.003 160.408C183.734 161.185 185.483 161.574 187.25 161.574C189.016 161.574 189.9 160.956 189.9 159.719Z" fill="#1E1E1E"/>
<path d="M219.706 147.37C219.706 146.805 219.318 146.522 218.54 146.522C217.162 146.522 216.35 146.063 216.102 145.144C215.961 144.685 215.89 143.978 215.89 143.024C215.89 142.07 216.014 141.399 216.261 141.01C216.544 140.586 217.056 140.286 217.798 140.109C218.576 139.897 219.265 139.561 219.865 139.102C220.501 138.607 221.773 137.547 223.681 135.922C225.625 134.297 226.967 133.237 227.709 132.742C228.487 132.247 229.441 132 230.571 132H233.221C234.458 132 235.288 132.159 235.712 132.477C236.136 132.76 236.348 133.219 236.348 133.855V138.89C236.348 139.632 236.666 140.003 237.302 140.003H242.973C243.892 140.003 244.546 140.197 244.934 140.586C245.358 140.975 245.57 141.876 245.57 143.289C245.57 144.667 245.358 145.55 244.934 145.939C244.51 146.328 243.874 146.522 243.026 146.522H237.514C237.02 146.522 236.702 146.646 236.56 146.893C236.419 147.14 236.348 147.494 236.348 147.953V154.313C236.419 155.514 236.861 156.521 237.673 157.334C238.521 158.147 239.705 158.553 241.224 158.553C241.966 158.553 242.885 158.359 243.98 157.97C245.076 157.546 245.818 157.334 246.206 157.334C247.16 157.334 247.637 158.747 247.637 161.574C247.637 163.623 247.09 164.86 245.994 165.284C244.864 165.673 243.274 165.991 241.224 166.238C239.175 166.485 237.126 166.609 235.076 166.609C233.027 166.609 231.066 166.45 229.193 166.132C227.356 165.779 225.678 165.178 224.158 164.33C221.19 162.599 219.706 159.295 219.706 154.419V147.37Z" fill="#1E1E1E"/>
<path d="M264.604 141.328C266.23 140.515 267.89 139.932 269.586 139.579C271.318 139.226 273.438 139.049 275.946 139.049C278.49 139.049 280.911 139.367 283.207 140.003C285.504 140.604 287.218 141.434 288.348 142.494C290.327 144.437 291.316 146.716 291.316 149.331C291.316 153.43 287.854 155.479 280.928 155.479C278.49 155.479 275.964 155.249 273.349 154.79C273.455 157.122 273.879 158.765 274.621 159.719C275.399 160.673 276.759 161.15 278.702 161.15C280.646 161.15 282.253 160.938 283.525 160.514C284.797 160.09 285.822 159.666 286.599 159.242C287.377 158.783 288.03 158.553 288.56 158.553C289.126 158.553 289.603 158.8 289.991 159.295C290.592 159.931 290.892 160.814 290.892 161.945C290.892 163.04 290.663 163.8 290.203 164.224C289.779 164.613 289.09 165.001 288.136 165.39C284.78 166.803 280.01 167.51 273.826 167.51C268.703 167.51 264.481 166.291 261.159 163.853C257.873 161.38 256.23 158.058 256.23 153.889C256.23 151.875 256.601 150.038 257.343 148.377C258.085 146.681 259.075 145.285 260.311 144.19C261.548 143.059 262.979 142.105 264.604 141.328ZM276.9 145.091C274.745 145.091 273.579 146.84 273.402 150.338C275.098 150.479 275.982 150.55 276.052 150.55C278.384 150.55 279.55 149.773 279.55 148.218C279.55 146.133 278.667 145.091 276.9 145.091Z" fill="#1E1E1E"/>
<path d="M304.788 139.685H315.123C316.325 139.685 317.155 139.95 317.614 140.48C318.074 140.975 318.303 141.734 318.303 142.759V144.667C320.282 140.922 323.497 139.049 327.949 139.049C329.433 139.049 330.652 139.526 331.606 140.48C332.56 141.434 333.037 142.706 333.037 144.296C333.037 145.886 332.613 147.476 331.765 149.066C330.917 150.621 329.734 151.398 328.214 151.398C327.508 151.398 326.518 151.045 325.246 150.338C323.974 149.596 322.95 149.225 322.172 149.225C321.395 149.225 320.582 149.508 319.734 150.073C318.922 150.638 318.515 151.575 318.515 152.882C318.515 158.571 318.409 162.334 318.197 164.171C318.091 164.772 317.791 165.302 317.296 165.761C316.802 166.22 315.918 166.503 314.646 166.609C313.41 166.68 312.173 166.715 310.936 166.715C309.7 166.715 307.597 166.644 304.629 166.503C303.781 166.468 303.11 166.22 302.615 165.761C302.121 165.302 301.838 164.772 301.767 164.171C301.52 161.874 301.396 158.359 301.396 153.624C301.396 148.889 301.467 145.656 301.608 143.925C301.75 142.158 302.015 141.01 302.403 140.48C302.792 139.95 303.587 139.685 304.788 139.685Z" fill="#1E1E1E"/>
<path d="M352.659 159.719C352.659 158.73 352.235 157.952 351.387 157.387C350.575 156.822 349.568 156.398 348.366 156.115C347.2 155.797 346.017 155.444 344.815 155.055C343.614 154.631 342.589 153.924 341.741 152.935C340.929 151.91 340.522 150.568 340.522 148.907C340.522 142.335 345.628 139.049 355.839 139.049C360.221 139.049 363.736 139.791 366.386 141.275C367.234 141.734 367.835 142.176 368.188 142.6C368.542 142.989 368.718 143.695 368.718 144.72C368.718 145.745 368.506 146.522 368.082 147.052C367.694 147.547 367.287 147.794 366.863 147.794C366.475 147.794 365.591 147.405 364.213 146.628C362.871 145.815 361.475 145.391 360.026 145.356C358.86 145.356 358.277 145.939 358.277 147.105C358.277 147.882 358.684 148.501 359.496 148.96C360.309 149.419 361.298 149.826 362.464 150.179C363.63 150.497 364.796 150.903 365.962 151.398C367.128 151.857 368.118 152.652 368.93 153.783C369.743 154.878 370.149 156.274 370.149 157.97C370.149 164.542 365.044 167.828 354.832 167.828C349.85 167.828 345.787 167.104 342.642 165.655C341.688 165.266 340.999 164.878 340.575 164.489C340.151 164.065 339.939 163.323 339.939 162.263C339.939 161.168 340.151 160.39 340.575 159.931C341.035 159.472 341.406 159.242 341.688 159.242C342.006 159.242 343.031 159.631 344.762 160.408C346.494 161.185 348.243 161.574 350.009 161.574C351.776 161.574 352.659 160.956 352.659 159.719Z" fill="#1E1E1E"/>
<path d="M207.46 118.804C201.35 119.353 192.595 119.628 181.195 119.628C169.795 119.628 161.998 119.445 157.803 119.078C153.699 118.804 150.598 118.071 148.5 116.88C146.403 115.689 145.263 113.811 145.08 111.246C144.533 101.353 144.26 90.0864 144.26 77.4453C144.26 64.7126 144.442 51.2471 144.807 37.0488C144.989 28.255 149.048 23.5833 156.982 23.0337C162.545 22.6673 171.072 22.4841 182.563 22.4841C194.054 22.4841 203.037 22.6673 209.512 23.0337C216.079 23.3085 222.371 24.82 228.39 27.568C234.501 30.2245 239.38 33.7054 243.028 38.0106C250.597 46.896 254.382 57.2013 254.382 68.9263C254.382 81.2926 250.415 92.3306 242.481 102.04C238.65 106.712 233.68 110.559 227.57 113.582C221.55 116.605 214.847 118.346 207.46 118.804ZM201.304 52.5754V85.8269C201.304 86.5597 201.578 87.2467 202.125 87.8879C202.672 88.5291 203.402 88.8497 204.314 88.8497C210.151 88.8497 214.619 86.8345 217.72 82.804C220.912 78.7735 222.508 74.0102 222.508 68.5141C222.508 63.018 221.049 58.2547 218.131 54.2242C215.303 50.1021 211.473 48.0411 206.64 48.0411C205.454 48.0411 204.542 48.0869 203.904 48.1785C202.171 48.6365 201.304 50.1021 201.304 52.5754Z" fill="#1E1E1E"/>
<path d="M330.498 118.804C324.388 119.353 315.633 119.628 304.233 119.628C292.833 119.628 285.036 119.445 280.841 119.078C276.737 118.804 273.636 118.071 271.538 116.88C269.441 115.689 268.301 113.811 268.118 111.246C267.571 101.353 267.298 90.0864 267.298 77.4453C267.298 64.7126 267.48 51.2471 267.845 37.0488C268.027 28.255 272.086 23.5833 280.02 23.0337C285.583 22.6673 294.11 22.4841 305.601 22.4841C317.092 22.4841 326.075 22.6673 332.55 23.0337C339.117 23.3085 345.409 24.82 351.428 27.568C357.539 30.2245 362.418 33.7054 366.066 38.0106C373.635 46.896 377.42 57.2013 377.42 68.9263C377.42 81.2926 373.453 92.3306 365.519 102.04C361.688 106.712 356.718 110.559 350.608 113.582C344.588 116.605 337.885 118.346 330.498 118.804ZM324.342 52.5754V85.8269C324.342 86.5597 324.616 87.2467 325.163 87.8879C325.71 88.5291 326.44 88.8497 327.352 88.8497C333.189 88.8497 337.657 86.8345 340.758 82.804C343.95 78.7735 345.546 74.0102 345.546 68.5141C345.546 63.018 344.087 58.2547 341.169 54.2242C338.341 50.1021 334.511 48.0411 329.678 48.0411C328.492 48.0411 327.58 48.0869 326.942 48.1785C325.209 48.6365 324.342 50.1021 324.342 52.5754Z" fill="#1E1E1E"/>
<path fill-rule="evenodd" clip-rule="evenodd" d="M68.8094 121.506C57.7743 121.506 47.7881 120.086 38.8506 117.246C29.9132 114.315 22.6629 110.422 17.0997 105.567C11.5366 100.712 7.29589 95.3074 4.37753 89.3533C1.45918 83.3076 0 77.0328 0 70.5291C0 64.0254 1.45918 57.7964 4.37753 51.8423C7.38709 45.7966 11.6278 40.3462 17.0997 35.4913C20.4468 32.5704 24.8217 29.8745 29.2262 27.6504L24.6582 19.9892C21.2228 19.9863 17.8825 18.1943 16.0412 14.9911C13.2939 10.2115 14.9243 4.09994 19.6828 1.34047C24.4413 -1.41901 30.526 0.218589 33.2733 4.99814C35.1145 8.20139 34.9895 12.0029 33.2742 14.9927L38.282 23.8138C47.2194 20.8825 57.5919 19.4152 68.2622 19.4152C78.5253 19.4152 87.9131 20.7257 95.8982 23.1834L100.606 14.9928C98.891 12.003 98.766 8.2014 100.607 4.99814C103.355 0.218589 109.439 -1.41901 114.198 1.34047C118.956 4.09994 120.587 10.2115 117.839 14.9911C115.998 18.1943 112.658 19.9863 109.222 19.9892L105.274 26.8588C109.542 28.9422 113.343 31.4498 116.415 34.2547C126.629 43.5981 131.736 54.682 131.736 67.5062C131.736 74.01 130.323 80.3763 127.496 86.6052C124.76 92.8342 120.793 98.5135 115.594 103.643C110.487 108.681 103.875 112.849 95.7586 116.147C87.6419 119.353 78.6588 121.139 68.8094 121.506ZM74.2937 91.2537C92.1338 90.4596 106.128 79.2006 105.55 66.1059C104.972 53.0113 90.0416 43.0397 72.2015 43.8337C54.3614 44.6278 40.3675 55.8869 40.9453 68.9815C41.523 82.0762 56.4536 92.0478 74.2937 91.2537Z" fill="#1E1E1E"/>
<path fill-rule="evenodd" clip-rule="evenodd" d="M95.6327 68.7928C95.6327 75.6915 89.5081 81.284 81.953 81.284C74.3978 81.284 68.2732 75.6915 68.2732 68.7928C68.2732 61.8941 74.3978 56.3016 81.953 56.3016C89.5081 56.3016 95.6327 61.8941 95.6327 68.7928ZM88.171 68.7928C89.5447 68.7928 90.6583 67.6743 90.6583 66.2946C90.6583 64.9148 89.5447 63.7963 88.171 63.7963C86.7974 63.7963 85.6838 64.9148 85.6838 66.2946C85.6838 67.6743 86.7974 68.7928 88.171 68.7928Z" fill="#1E1E1E"/>
</svg>
