<svg width="55" height="51" viewBox="0 0 55 51" fill="none" xmlns="http://www.w3.org/2000/svg">
<path fill-rule="evenodd" clip-rule="evenodd" d="M28.665 49.6366C24.2283 49.6366 20.2133 49.0682 16.62 47.9316C13.0267 46.7582 10.1117 45.1999 7.875 43.2566C5.63833 41.3132 3.93333 39.1499 2.76 36.7666C1.58667 34.3466 1 31.8349 1 29.2316C1 26.6282 1.58667 24.1349 2.76 21.7516C3.97 19.3316 5.675 17.1499 7.875 15.2066C9.22069 14.0374 10.9796 12.9583 12.7505 12.068L10.9139 9.00133C9.53267 9.00018 8.1897 8.28288 7.44941 7.00067C6.34484 5.0875 7.00034 2.64114 8.91352 1.53657C10.8267 0.431997 13.273 1.0875 14.3776 3.00067C15.1179 4.28287 15.0676 5.80457 14.378 7.00133L16.3914 10.5322C19.9847 9.3589 24.155 8.77156 28.445 8.77156C32.5713 8.77156 36.3457 9.29615 39.5562 10.2799L41.449 7.00134C40.7594 5.80458 40.7091 4.28288 41.4494 3.00067C42.554 1.0875 45.0003 0.431997 46.9135 1.53657C48.8267 2.64114 49.4822 5.0875 48.3776 7.00067C47.6373 8.28287 46.2944 9.00017 44.9131 9.00133L43.3256 11.7511C45.0419 12.5851 46.57 13.5888 47.805 14.7116C51.9117 18.4516 53.965 22.8882 53.965 28.0216C53.965 30.6249 53.3967 33.1732 52.26 35.6666C51.16 38.1599 49.565 40.4332 47.475 42.4866C45.4217 44.5032 42.7633 46.1716 39.5 47.4916C36.2367 48.7749 32.625 49.4899 28.665 49.6366ZM30.87 37.5273C38.0427 37.2094 43.6689 32.7026 43.4367 27.461C43.2044 22.2195 37.2015 18.228 30.0288 18.5459C22.8562 18.8637 17.2299 23.3705 17.4622 28.6121C17.6944 33.8537 23.6973 37.8451 30.87 37.5273Z" stroke="white"/>
<path fill-rule="evenodd" clip-rule="evenodd" d="M39.4494 28.5366C39.4494 31.298 36.987 33.5366 33.9494 33.5366C30.9118 33.5366 28.4494 31.298 28.4494 28.5366C28.4494 25.7751 30.9118 23.5366 33.9494 23.5366C36.987 23.5366 39.4494 25.7751 39.4494 28.5366ZM36.4494 28.5366C37.0017 28.5366 37.4494 28.0889 37.4494 27.5366C37.4494 26.9843 37.0017 26.5366 36.4494 26.5366C35.8971 26.5366 35.4494 26.9843 35.4494 27.5366C35.4494 28.0889 35.8971 28.5366 36.4494 28.5366Z" stroke="white"/>
</svg>
