<svg width="53" height="49" viewBox="0 0 53 49" fill="none" xmlns="http://www.w3.org/2000/svg">
<path fill-rule="evenodd" clip-rule="evenodd" d="M27.665 48.6366C23.2283 48.6366 19.2133 48.0682 15.62 46.9316C12.0267 45.7582 9.11167 44.1999 6.875 42.2566C4.63833 40.3132 2.93333 38.1499 1.76 35.7666C0.586667 33.3466 0 30.8349 0 28.2316C0 25.6282 0.586667 23.1349 1.76 20.7516C2.97 18.3316 4.675 16.1499 6.875 14.2066C8.22069 13.0374 9.97962 11.9583 11.7505 11.068L9.9139 8.00133C8.53267 8.00018 7.1897 7.28288 6.44941 6.00067C5.34484 4.0875 6.00034 1.64114 7.91352 0.536566C9.82668 -0.568003 12.273 0.0874972 13.3776 2.00067C14.1179 3.28287 14.0676 4.80457 13.378 6.00133L15.3914 9.53223C18.9847 8.3589 23.155 7.77156 27.445 7.77156C31.5713 7.77156 35.3457 8.29615 38.5562 9.2799L40.449 6.00134C39.7594 4.80458 39.7091 3.28288 40.4494 2.00067C41.554 0.0874972 44.0003 -0.568003 45.9135 0.536566C47.8267 1.64114 48.4822 4.0875 47.3776 6.00067C46.6373 7.28287 45.2944 8.00017 43.9131 8.00133L42.3256 10.7511C44.0419 11.5851 45.57 12.5888 46.805 13.7116C50.9117 17.4516 52.965 21.8882 52.965 27.0216C52.965 29.6249 52.3967 32.1732 51.26 34.6666C50.16 37.1599 48.565 39.4332 46.475 41.4866C44.4217 43.5032 41.7633 45.1716 38.5 46.4916C35.2367 47.7749 31.625 48.4899 27.665 48.6366ZM29.87 36.5273C37.0426 36.2094 42.6689 31.7026 42.4367 26.461C42.2044 21.2195 36.2015 17.228 29.0288 17.5459C21.8562 17.8637 16.2299 22.3705 16.4622 27.6121C16.6944 32.8537 22.6973 36.8451 29.87 36.5273Z" fill="#1E1E1E"/>
<path fill-rule="evenodd" clip-rule="evenodd" d="M38.4494 27.5366C38.4494 30.298 35.987 32.5366 32.9494 32.5366C29.9118 32.5366 27.4494 30.298 27.4494 27.5366C27.4494 24.7751 29.9118 22.5366 32.9494 22.5366C35.987 22.5366 38.4494 24.7751 38.4494 27.5366ZM35.4494 27.5366C36.0017 27.5366 36.4494 27.0889 36.4494 26.5366C36.4494 25.9843 36.0017 25.5366 35.4494 25.5366C34.8971 25.5366 34.4494 25.9843 34.4494 26.5366C34.4494 27.0889 34.8971 27.5366 35.4494 27.5366Z" fill="#1E1E1E"/>
</svg>
